<svg width="1440" height="27" fill="none" xmlns="http://www.w3.org/2000/svg"><g opacity=".25"><path d="M0 7c34.286 0 34.286 12.641 68.573 12.641C102.859 19.641 102.859 7 137.132 7c34.273 0 34.286 12.641 68.573 12.641C239.991 19.641 239.991 7 274.277 7c34.287 0 34.287 12.641 68.56 12.641S377.123 7 411.409 7c34.287 0 34.287 12.641 68.573 12.641C514.268 19.641 514.268 7 548.555 7c34.286 0 34.273 12.641 68.559 12.641C651.4 19.641 651.4 7 685.687 7c34.286 0 34.286 12.641 68.559 12.641C788.519 19.641 788.532 7 822.819 7c34.286 0 34.286 12.641 68.586 12.641S925.678 7 959.964 7c34.287 0 34.3 12.641 68.586 12.641 34.29 0 34.29-12.641 68.56-12.641s34.29 12.641 68.57 12.641c34.29 0 34.29-12.641 68.59-12.641 34.3 0 34.28 12.641 68.57 12.641 34.29 0 34.29-12.641 68.57-12.641 34.29 0 34.3 12.641 68.59 12.641" fill="#000"/><path d="M0 7c34.286 0 34.286 12.641 68.573 12.641C102.859 19.641 102.859 7 137.132 7c34.273 0 34.286 12.641 68.573 12.641C239.991 19.641 239.991 7 274.277 7c34.287 0 34.287 12.641 68.56 12.641S377.123 7 411.409 7c34.287 0 34.287 12.641 68.573 12.641C514.268 19.641 514.268 7 548.555 7c34.286 0 34.273 12.641 68.559 12.641C651.4 19.641 651.4 7 685.687 7c34.286 0 34.286 12.641 68.559 12.641C788.519 19.641 788.532 7 822.819 7c34.286 0 34.286 12.641 68.586 12.641S925.678 7 959.964 7c34.287 0 34.3 12.641 68.586 12.641 34.29 0 34.29-12.641 68.56-12.641s34.29 12.641 68.57 12.641c34.29 0 34.29-12.641 68.59-12.641 34.3 0 34.28 12.641 68.57 12.641 34.29 0 34.29-12.641 68.57-12.641 34.29 0 34.3 12.641 68.59 12.641" stroke="#000" stroke-width="13" stroke-miterlimit="10"/></g></svg>